<svg width="16" height="16" viewBox="0 0 16 16" fill="none" xmlns="http://www.w3.org/2000/svg">
<g clip-path="url(#clip0_3806_11)">
<path d="M7.98373 1.45157C9.27565 1.45157 10.5386 1.83467 11.6128 2.55243C12.687 3.27019 13.5242 4.29036 14.0186 5.48394C14.513 6.67753 14.6424 7.99091 14.3903 9.25802C14.1383 10.5251 13.5161 11.689 12.6026 12.6026C11.6891 13.5161 10.5252 14.1382 9.25807 14.3902C7.99097 14.6423 6.67759 14.5129 5.484 14.0185C4.29042 13.5241 3.27025 12.6869 2.55249 11.6127C1.83473 10.5385 1.45163 9.27559 1.45163 7.98367C1.45832 6.25331 2.14867 4.59573 3.37223 3.37217C4.59579 2.14861 6.25337 1.45826 7.98373 1.45157ZM7.98373 -1.85292e-06C6.40611 0.00645208 4.86578 0.480166 3.55717 1.36134C2.24857 2.24251 1.23037 3.49163 0.631106 4.95101C0.031846 6.41039 -0.121605 8.01461 0.190125 9.56113C0.501855 11.1077 1.26479 12.5271 2.38262 13.6404C3.50044 14.7537 4.92304 15.5108 6.47082 15.8162C8.01861 16.1217 9.62218 15.9617 11.0791 15.3564C12.536 14.7512 13.781 13.7279 14.6568 12.4157C15.5326 11.1036 16 9.56129 16.0001 7.98367C16.0001 6.93248 15.7925 5.89165 15.3892 4.92089C14.986 3.95013 14.395 3.06856 13.6502 2.32678C12.9053 1.585 12.0214 0.99761 11.049 0.598319C10.0766 0.199028 9.0349 -0.00430215 7.98373 -1.85292e-06Z" fill="#F2F2F2"/>
<path d="M11.707 7.38126H8.4954V4.16965H7.41397V7.38126H4.19873V8.46268H7.41397V11.6743H8.4954V8.46268H11.707V7.38126Z" fill="#F2F2F2"/>
</g>
<defs>
<clipPath id="clip0_3806_11">
<rect width="16" height="16" fill="white"/>
</clipPath>
</defs>
</svg>
